<svg width="20" height="20" viewBox="0 0 20 20" fill="none" xmlns="http://www.w3.org/2000/svg">
<path d="M9.99999 1.66666L10.27 1.66749L10.535 1.67082L11.0483 1.68499L11.2975 1.69582L11.78 1.72416L12.2408 1.76249C16.2283 2.14916 17.8508 3.77166 18.2375 7.75916L18.2758 8.21999L18.3042 8.70249C18.3083 8.78416 18.3125 8.86749 18.315 8.95166L18.3292 9.46499L18.3333 9.99999L18.3292 10.535L18.315 11.0483L18.3042 11.2975L18.2758 11.78L18.2375 12.2408C17.8508 16.2283 16.2283 17.8508 12.2408 18.2375L11.78 18.2758L11.2975 18.3042C11.2158 18.3083 11.1325 18.3125 11.0483 18.315L10.535 18.3292L9.99999 18.3333L9.46499 18.3292L8.95166 18.315L8.70249 18.3042L8.21999 18.2758L7.75916 18.2375C3.77166 17.8508 2.14916 16.2283 1.76249 12.2408L1.72416 11.78L1.69582 11.2975C1.69177 11.2145 1.68816 11.1314 1.68499 11.0483L1.67082 10.535C1.66832 10.36 1.66666 10.1817 1.66666 9.99999L1.66749 9.72999L1.67082 9.46499L1.68499 8.95166L1.69582 8.70249L1.72416 8.21999L1.76249 7.75916C2.14916 3.77166 3.77166 2.14916 7.75916 1.76249L8.21999 1.72416L8.70249 1.69582C8.78416 1.69166 8.86749 1.68749 8.95166 1.68499L9.46499 1.67082C9.63999 1.66832 9.81832 1.66666 9.99999 1.66666ZM9.99999 6.66666C9.77898 6.66666 9.56701 6.75445 9.41073 6.91073C9.25445 7.06701 9.16666 7.27898 9.16666 7.49999V9.16666H7.49999L7.40249 9.17249C7.19158 9.19758 6.9982 9.30225 6.86188 9.46513C6.72555 9.62801 6.65657 9.83679 6.66901 10.0488C6.68146 10.2609 6.7744 10.4601 6.92885 10.6059C7.0833 10.7518 7.28759 10.8331 7.49999 10.8333H9.16666V12.5L9.17249 12.5975C9.19758 12.8084 9.30225 13.0018 9.46513 13.1381C9.62801 13.2744 9.83679 13.3434 10.0488 13.331C10.2609 13.3185 10.4601 13.2256 10.6059 13.0711C10.7518 12.9167 10.8331 12.7124 10.8333 12.5V10.8333H12.5L12.5975 10.8275C12.8084 10.8024 13.0018 10.6977 13.1381 10.5349C13.2744 10.372 13.3434 10.1632 13.331 9.95115C13.3185 9.73912 13.2256 9.53984 13.0711 9.39403C12.9167 9.24822 12.7124 9.16689 12.5 9.16666H10.8333V7.49999L10.8275 7.40249C10.8036 7.19978 10.7062 7.01289 10.5536 6.87725C10.4011 6.74162 10.2041 6.66668 9.99999 6.66666Z" fill="#D81414"/>
</svg>
