<svg width="20" height="20" viewBox="0 0 20 20" fill="none" xmlns="http://www.w3.org/2000/svg">
<path d="M10 1.66667L10.27 1.6675L10.535 1.67083L11.0484 1.685L11.2975 1.69583L11.78 1.72417L12.2409 1.7625C16.2284 2.14917 17.8509 3.77167 18.2375 7.75917L18.2759 8.22L18.3042 8.7025C18.3084 8.78417 18.3125 8.8675 18.315 8.95167L18.3292 9.465L18.3334 10L18.3292 10.535L18.315 11.0483L18.3042 11.2975L18.2759 11.78L18.2375 12.2408C17.8509 16.2283 16.2284 17.8508 12.2409 18.2375L11.78 18.2758L11.2975 18.3042C11.2159 18.3083 11.1325 18.3125 11.0484 18.315L10.535 18.3292L10 18.3333L9.46502 18.3292L8.95169 18.315L8.70252 18.3042L8.22002 18.2758L7.75919 18.2375C3.77169 17.8508 2.14919 16.2283 1.76252 12.2408L1.72419 11.78L1.69585 11.2975C1.6918 11.2145 1.68819 11.1314 1.68502 11.0483L1.67085 10.535C1.66835 10.36 1.66669 10.1817 1.66669 10L1.66752 9.73L1.67085 9.465L1.68502 8.95167L1.69585 8.7025L1.72419 8.22L1.76252 7.75917C2.14919 3.77167 3.77169 2.14917 7.75919 1.7625L8.22002 1.72417L8.70252 1.69583C8.78419 1.69167 8.86752 1.6875 8.95169 1.685L9.46502 1.67083C9.64002 1.66833 9.81835 1.66667 10 1.66667ZM10 6.66667C9.77901 6.66667 9.56704 6.75447 9.41076 6.91075C9.25448 7.06703 9.16669 7.27899 9.16669 7.5V9.16667H7.50002L7.40252 9.1725C7.19161 9.19759 6.99823 9.30226 6.86191 9.46514C6.72558 9.62802 6.6566 9.8368 6.66904 10.0488C6.68149 10.2609 6.77443 10.4602 6.92888 10.606C7.08333 10.7518 7.28762 10.8331 7.50002 10.8333H9.16669V12.5L9.17252 12.5975C9.19761 12.8084 9.30228 13.0018 9.46516 13.1381C9.62804 13.2744 9.83682 13.3434 10.0489 13.331C10.2609 13.3185 10.4602 13.2256 10.606 13.0711C10.7518 12.9167 10.8331 12.7124 10.8334 12.5V10.8333H12.5L12.5975 10.8275C12.8084 10.8024 13.0018 10.6977 13.1381 10.5349C13.2745 10.372 13.3434 10.1632 13.331 9.95116C13.3185 9.73913 13.2256 9.53985 13.0712 9.39404C12.9167 9.24823 12.7124 9.1669 12.5 9.16667H10.8334V7.5L10.8275 7.4025C10.8036 7.19979 10.7062 7.0129 10.5537 6.87726C10.4011 6.74163 10.2041 6.66669 10 6.66667Z" fill="white"/>
</svg>
